<svg xmlns="http://www.w3.org/2000/svg" xmlns:xlink="http://www.w3.org/1999/xlink" width="410"
    zoomAndPan="magnify" viewBox="0 0 307.5 127.500001" height="150"
    preserveAspectRatio="xMidYMid meet" version="1.0">
    <defs>
        <g />
        <clipPath id="5f849c12a6">
            <path
                d="M 12.949219 12.039062 L 306.285156 12.039062 L 306.285156 112.296875 L 12.949219 112.296875 Z M 12.949219 12.039062 "
                clip-rule="nonzero" />
        </clipPath>
        <clipPath id="03efb93dec">
            <path
                d="M 30.132812 12.039062 L 289.066406 12.039062 C 293.625 12.039062 297.996094 13.847656 301.21875 17.070312 C 304.441406 20.292969 306.25 24.664062 306.25 29.222656 L 306.25 95.113281 C 306.25 99.671875 304.441406 104.042969 301.21875 107.265625 C 297.996094 110.488281 293.625 112.296875 289.066406 112.296875 L 30.132812 112.296875 C 25.574219 112.296875 21.203125 110.488281 17.984375 107.265625 C 14.761719 104.042969 12.949219 99.671875 12.949219 95.113281 L 12.949219 29.222656 C 12.949219 24.664062 14.761719 20.292969 17.984375 17.070312 C 21.203125 13.847656 25.574219 12.039062 30.132812 12.039062 Z M 30.132812 12.039062 "
                clip-rule="nonzero" />
        </clipPath>
    </defs>
    <g clip-path="url(#5f849c12a6)">
        <g clip-path="url(#03efb93dec)">
            <path fill="#1a1b1e"
                d="M 12.949219 12.039062 L 306.285156 12.039062 L 306.285156 112.296875 L 12.949219 112.296875 Z M 12.949219 12.039062 "
                fill-opacity="1" fill-rule="nonzero" />
        </g>
    </g>
    <g fill="#ffffff" fill-opacity="1">
        <g transform="translate(75.749655, 35.146902)">
            <g>
                <path
                    d="M -5.828125 55.921875 L -24.15625 55.921875 C -26.945312 55.921875 -29.492188 55.519531 -31.796875 54.71875 C -34.109375 53.914062 -36.078125 52.789062 -37.703125 51.34375 C -39.335938 49.894531 -40.59375 48.132812 -41.46875 46.0625 C -42.351562 43.988281 -42.796875 41.679688 -42.796875 39.140625 C -42.796875 35.410156 -41.863281 32.222656 -40 29.578125 C -38.132812 26.941406 -35.570312 25.03125 -32.3125 23.84375 L -43.578125 0 L -32.859375 0 L -22.765625 22.375 L -15.53125 22.375 L -15.53125 0 L -5.828125 0 Z M -15.53125 30.21875 L -24.15625 30.21875 C -26.84375 30.21875 -28.976562 30.992188 -30.5625 32.546875 C -32.144531 34.097656 -32.9375 36.191406 -32.9375 38.828125 C -32.9375 41.523438 -32.128906 43.675781 -30.515625 45.28125 C -28.910156 46.882812 -26.789062 47.6875 -24.15625 47.6875 L -15.53125 47.6875 Z M -15.53125 30.21875 " />
            </g>
        </g>
    </g>
    <g fill="#ffffff" fill-opacity="1">
        <g transform="translate(54.619859, 91.25291)">
            <g>
                <path
                    d="M 5.75 0 L 5.75 -55.921875 L 23.53125 -55.921875 C 29.125 -55.921875 33.523438 -54.625 36.734375 -52.03125 C 39.941406 -49.445312 41.546875 -45.929688 41.546875 -41.484375 C 41.546875 -38.054688 40.585938 -35.28125 38.671875 -33.15625 C 36.765625 -31.039062 34.175781 -29.851562 30.90625 -29.59375 L 30.90625 -28.890625 C 34.53125 -28.628906 37.378906 -27.359375 39.453125 -25.078125 C 41.523438 -22.804688 42.5625 -19.804688 42.5625 -16.078125 C 42.5625 -13.585938 42.132812 -11.359375 41.28125 -9.390625 C 40.425781 -7.429688 39.207031 -5.75 37.625 -4.34375 C 36.050781 -2.945312 34.125 -1.875 31.84375 -1.125 C 29.5625 -0.375 27 0 24.15625 0 Z M 15.21875 -24.859375 L 15.21875 -8.078125 L 23.53125 -8.078125 C 26.4375 -8.078125 28.691406 -8.8125 30.296875 -10.28125 C 31.898438 -11.757812 32.703125 -13.820312 32.703125 -16.46875 C 32.703125 -19.101562 31.898438 -21.160156 30.296875 -22.640625 C 28.691406 -24.117188 26.4375 -24.859375 23.53125 -24.859375 Z M 15.21875 -47.84375 L 15.21875 -32.859375 L 23.375 -32.859375 C 25.914062 -32.859375 27.9375 -33.53125 29.4375 -34.875 C 30.9375 -36.21875 31.6875 -38.054688 31.6875 -40.390625 C 31.6875 -42.722656 30.945312 -44.546875 29.46875 -45.859375 C 28 -47.179688 25.992188 -47.84375 23.453125 -47.84375 Z M 15.21875 -47.84375 " />
            </g>
        </g>
    </g>
    <g fill="#ffffff" fill-opacity="1">
        <g transform="translate(107.83082, 78.063047)">
            <g>
                <path
                    d="M 3.484375 -33.453125 L 14.453125 -33.453125 C 16.117188 -33.453125 17.640625 -33.207031 19.015625 -32.71875 C 20.398438 -32.238281 21.578125 -31.566406 22.546875 -30.703125 C 23.523438 -29.835938 24.273438 -28.785156 24.796875 -27.546875 C 25.328125 -26.304688 25.59375 -24.925781 25.59375 -23.40625 C 25.59375 -21.175781 25.035156 -19.269531 23.921875 -17.6875 C 22.804688 -16.113281 21.273438 -14.972656 19.328125 -14.265625 L 26.0625 0 L 19.65625 0 L 13.609375 -13.375 L 9.296875 -13.375 L 9.296875 0 L 3.484375 0 Z M 9.296875 -18.0625 L 14.453125 -18.0625 C 16.054688 -18.0625 17.332031 -18.523438 18.28125 -19.453125 C 19.226562 -20.390625 19.703125 -21.648438 19.703125 -23.234375 C 19.703125 -24.835938 19.21875 -26.117188 18.25 -27.078125 C 17.289062 -28.035156 16.023438 -28.515625 14.453125 -28.515625 L 9.296875 -28.515625 Z M 9.296875 -18.0625 " />
            </g>
        </g>
    </g>
    <g fill="#ffffff" fill-opacity="1">
        <g transform="translate(132.822077, 78.063047)">
            <g>
                <path
                    d="M 13.9375 0.46875 C 12.257812 0.46875 10.734375 0.226562 9.359375 -0.25 C 7.984375 -0.726562 6.8125 -1.398438 5.84375 -2.265625 C 4.882812 -3.140625 4.140625 -4.195312 3.609375 -5.4375 C 3.085938 -6.675781 2.828125 -8.050781 2.828125 -9.5625 L 2.828125 -16.03125 C 2.828125 -17.539062 3.085938 -18.914062 3.609375 -20.15625 C 4.140625 -21.394531 4.882812 -22.445312 5.84375 -23.3125 C 6.8125 -24.1875 7.984375 -24.851562 9.359375 -25.3125 C 10.734375 -25.78125 12.257812 -26.015625 13.9375 -26.015625 C 15.601562 -26.015625 17.117188 -25.773438 18.484375 -25.296875 C 19.847656 -24.816406 21.007812 -24.140625 21.96875 -23.265625 C 22.925781 -22.398438 23.664062 -21.347656 24.1875 -20.109375 C 24.71875 -18.867188 24.984375 -17.492188 24.984375 -15.984375 L 24.984375 -11.328125 L 8.59375 -11.328125 L 8.59375 -9.65625 C 8.59375 -7.957031 9.0625 -6.628906 10 -5.671875 C 10.945312 -4.710938 12.257812 -4.234375 13.9375 -4.234375 C 15.207031 -4.234375 16.28125 -4.425781 17.15625 -4.8125 C 18.039062 -5.195312 18.671875 -5.757812 19.046875 -6.5 L 24.765625 -6.5 C 24.484375 -5.445312 24.015625 -4.488281 23.359375 -3.625 C 22.710938 -2.757812 21.914062 -2.023438 20.96875 -1.421875 C 20.03125 -0.816406 18.960938 -0.347656 17.765625 -0.015625 C 16.578125 0.304688 15.300781 0.46875 13.9375 0.46875 Z M 19.28125 -15.234375 L 19.28125 -15.984375 C 19.28125 -17.679688 18.8125 -19.003906 17.875 -19.953125 C 16.945312 -20.898438 15.632812 -21.375 13.9375 -21.375 C 12.257812 -21.375 10.945312 -20.898438 10 -19.953125 C 9.0625 -19.003906 8.59375 -17.695312 8.59375 -16.03125 L 8.59375 -15.234375 Z M 19.28125 -15.234375 " />
            </g>
        </g>
    </g>
    <g fill="#ffffff" fill-opacity="1">
        <g transform="translate(157.813334, 78.063047)">
            <g>
                <path
                    d="M 3.4375 0 L 3.4375 -33.453125 L 14.078125 -33.453125 C 17.421875 -33.453125 20.050781 -32.675781 21.96875 -31.125 C 23.894531 -29.570312 24.859375 -27.46875 24.859375 -24.8125 C 24.859375 -22.757812 24.285156 -21.097656 23.140625 -19.828125 C 21.992188 -18.566406 20.441406 -17.859375 18.484375 -17.703125 L 18.484375 -17.28125 C 20.648438 -17.125 22.351562 -16.363281 23.59375 -15 C 24.832031 -13.632812 25.453125 -11.835938 25.453125 -9.609375 C 25.453125 -8.128906 25.195312 -6.800781 24.6875 -5.625 C 24.175781 -4.445312 23.445312 -3.4375 22.5 -2.59375 C 21.5625 -1.757812 20.410156 -1.117188 19.046875 -0.671875 C 17.679688 -0.222656 16.148438 0 14.453125 0 Z M 9.109375 -14.859375 L 9.109375 -4.828125 L 14.078125 -4.828125 C 15.804688 -4.828125 17.148438 -5.269531 18.109375 -6.15625 C 19.078125 -7.039062 19.5625 -8.269531 19.5625 -9.84375 C 19.5625 -11.425781 19.078125 -12.65625 18.109375 -13.53125 C 17.148438 -14.414062 15.804688 -14.859375 14.078125 -14.859375 Z M 9.109375 -28.609375 L 9.109375 -19.65625 L 13.984375 -19.65625 C 15.503906 -19.65625 16.710938 -20.054688 17.609375 -20.859375 C 18.503906 -21.660156 18.953125 -22.757812 18.953125 -24.15625 C 18.953125 -25.550781 18.507812 -26.640625 17.625 -27.421875 C 16.75 -28.210938 15.550781 -28.609375 14.03125 -28.609375 Z M 9.109375 -28.609375 " />
            </g>
        </g>
    </g>
    <g fill="#ffffff" fill-opacity="1">
        <g transform="translate(182.804587, 78.063047)">
            <g>
                <path
                    d="M 4.40625 -25.546875 L 9.890625 -25.546875 L 9.890625 -21.140625 L 10.3125 -21.140625 C 10.625 -22.679688 11.398438 -23.878906 12.640625 -24.734375 C 13.878906 -25.585938 15.457031 -26.015625 17.375 -26.015625 C 20.132812 -26.015625 22.285156 -25.160156 23.828125 -23.453125 C 25.378906 -21.753906 26.15625 -19.398438 26.15625 -16.390625 L 26.15625 -14.546875 L 20.0625 -14.546875 L 20.0625 -15.890625 C 20.0625 -17.523438 19.613281 -18.800781 18.71875 -19.71875 C 17.820312 -20.632812 16.582031 -21.09375 15 -21.09375 C 13.519531 -21.09375 12.351562 -20.625 11.5 -19.6875 C 10.644531 -18.757812 10.21875 -17.492188 10.21875 -15.890625 L 10.21875 0 L 4.40625 0 Z M 4.40625 -25.546875 " />
            </g>
        </g>
    </g>
    <g fill="#ffffff" fill-opacity="1">
        <g transform="translate(207.795848, 78.063047)">
            <g>
                <path
                    d="M 2.375 -7.15625 C 2.375 -8.425781 2.601562 -9.5625 3.0625 -10.5625 C 3.53125 -11.570312 4.195312 -12.429688 5.0625 -13.140625 C 5.925781 -13.859375 6.96875 -14.410156 8.1875 -14.796875 C 9.414062 -15.179688 10.789062 -15.375 12.3125 -15.375 L 18.71875 -15.375 L 18.71875 -17.5625 C 18.71875 -18.738281 18.273438 -19.675781 17.390625 -20.375 C 16.515625 -21.070312 15.300781 -21.421875 13.75 -21.421875 C 12.476562 -21.421875 11.410156 -21.1875 10.546875 -20.71875 C 9.679688 -20.25 9.125 -19.613281 8.875 -18.8125 L 3.15625 -18.8125 C 3.5625 -21.039062 4.707031 -22.796875 6.59375 -24.078125 C 8.488281 -25.367188 10.875 -26.015625 13.75 -26.015625 C 15.394531 -26.015625 16.878906 -25.820312 18.203125 -25.4375 C 19.535156 -25.050781 20.664062 -24.492188 21.59375 -23.765625 C 22.53125 -23.035156 23.253906 -22.148438 23.765625 -21.109375 C 24.273438 -20.078125 24.53125 -18.925781 24.53125 -17.65625 L 24.53125 0 L 19.046875 0 L 19.046875 -5.015625 L 18.671875 -5.015625 C 18.359375 -3.347656 17.484375 -2.015625 16.046875 -1.015625 C 14.609375 -0.0234375 12.820312 0.46875 10.6875 0.46875 C 8.144531 0.46875 6.125 -0.21875 4.625 -1.59375 C 3.125 -2.976562 2.375 -4.832031 2.375 -7.15625 Z M 12.6875 -4.09375 C 14.445312 -4.09375 15.890625 -4.515625 17.015625 -5.359375 C 18.148438 -6.210938 18.71875 -7.289062 18.71875 -8.59375 L 18.71875 -11.5625 L 12.359375 -11.5625 C 11.054688 -11.5625 10.03125 -11.234375 9.28125 -10.578125 C 8.539062 -9.929688 8.171875 -9.019531 8.171875 -7.84375 C 8.171875 -6.664062 8.566406 -5.742188 9.359375 -5.078125 C 10.148438 -4.421875 11.257812 -4.09375 12.6875 -4.09375 Z M 12.6875 -4.09375 " />
            </g>
        </g>
    </g>
    <g fill="#ffffff" fill-opacity="1">
        <g transform="translate(232.787109, 78.063047)">
            <g>
                <path
                    d="M 3.859375 -5.296875 L 13 -5.296875 L 13 -20.296875 L 5.015625 -20.296875 L 5.015625 -25.546875 L 18.578125 -25.546875 L 18.578125 -5.296875 L 25.96875 -5.296875 L 25.96875 0 L 3.859375 0 Z M 11.328125 -32.46875 C 11.328125 -33.363281 11.628906 -34.097656 12.234375 -34.671875 C 12.835938 -35.242188 13.632812 -35.53125 14.625 -35.53125 L 15.84375 -35.53125 C 16.832031 -35.53125 17.628906 -35.242188 18.234375 -34.671875 C 18.835938 -34.097656 19.140625 -33.363281 19.140625 -32.46875 C 19.140625 -31.539062 18.828125 -30.796875 18.203125 -30.234375 C 17.585938 -29.679688 16.785156 -29.40625 15.796875 -29.40625 L 14.625 -29.40625 C 13.632812 -29.40625 12.835938 -29.679688 12.234375 -30.234375 C 11.628906 -30.796875 11.328125 -31.539062 11.328125 -32.46875 Z M 11.328125 -32.46875 " />
            </g>
        </g>
    </g>
    <g fill="#ffffff" fill-opacity="1">
        <g transform="translate(257.77837, 78.063047)">
            <g>
                <path
                    d="M 3.34375 0 L 3.34375 -25.546875 L 8.875 -25.546875 L 8.875 -21.140625 L 9.296875 -21.140625 C 9.566406 -22.679688 10.289062 -23.878906 11.46875 -24.734375 C 12.644531 -25.585938 14.164062 -26.015625 16.03125 -26.015625 C 18.59375 -26.015625 20.632812 -25.175781 22.15625 -23.5 C 23.675781 -21.832031 24.4375 -19.570312 24.4375 -16.71875 L 24.4375 0 L 18.625 0 L 18.625 -16.03125 C 18.625 -17.570312 18.207031 -18.785156 17.375 -19.671875 C 16.539062 -20.554688 15.394531 -21 13.9375 -21 C 12.445312 -21 11.273438 -20.539062 10.421875 -19.625 C 9.578125 -18.707031 9.15625 -17.460938 9.15625 -15.890625 L 9.15625 0 Z M 3.34375 0 " />
            </g>
        </g>
    </g>
</svg>